<svg width="36" height="36" viewBox="0 0 36 36" fill="none" xmlns="http://www.w3.org/2000/svg">
<path d="M18.2351 29.6332C15.6513 29.6332 13.7919 29.632 12.3423 29.494C10.9092 29.3577 9.99251 29.0957 9.26092 28.6445C8.42477 28.129 7.71773 27.4352 7.19233 26.6147C6.73279 25.8967 6.46568 24.9971 6.32692 23.5907C6.18634 22.1681 6.18506 20.3433 6.18506 17.8076C6.18506 15.272 6.18634 13.4472 6.32692 12.0246C6.46568 10.6182 6.73279 9.71858 7.19233 9.00063C7.71771 8.18003 8.42475 7.48616 9.26092 6.97057C9.99251 6.51958 10.9092 6.25745 12.3423 6.12128C13.7917 5.98331 15.6511 5.98206 18.2351 5.98206C20.8189 5.98206 22.6783 5.98331 24.1279 6.12128C25.561 6.25745 26.4777 6.51958 27.2093 6.97057C28.0454 7.48618 28.7524 8.18005 29.2777 9.00063C29.7374 9.71858 30.0044 10.6182 30.1433 12.0246C30.2839 13.4472 30.2852 15.272 30.2852 17.8076C30.2852 20.3433 30.2839 22.1681 30.1433 23.5907C30.0044 24.9971 29.7374 25.8967 29.2777 26.6147C28.7524 27.4352 28.0454 28.129 27.2093 28.6445C26.4777 29.0957 25.561 29.3577 24.1279 29.494C22.6783 29.632 20.8189 29.6332 18.2351 29.6332Z" stroke="#FFDCC6" stroke-width="3"/>
<path d="M18.2351 23.1829C21.2601 23.1829 23.7124 20.7763 23.7124 17.8076C23.7124 14.839 21.2601 12.4324 18.2351 12.4324C15.2101 12.4324 12.7578 14.839 12.7578 17.8076C12.7578 20.7763 15.2101 23.1829 18.2351 23.1829Z" stroke="#FFDCC6" stroke-width="3"/>
<path d="M25.3556 12.4324C26.2631 12.4324 26.9988 11.7105 26.9988 10.8199C26.9988 9.92925 26.2631 9.20728 25.3556 9.20728C24.4481 9.20728 23.7124 9.92925 23.7124 10.8199C23.7124 11.7105 24.4481 12.4324 25.3556 12.4324Z" fill="#FFDCC6"/>
</svg>
