<svg width="36" height="36" viewBox="0 0 36 36" fill="none" xmlns="http://www.w3.org/2000/svg">
<path d="M27.2858 5.98206H9.02816C7.41481 5.98206 6.10693 7.26557 6.10693 8.84887V26.7664C6.10693 28.3497 7.41481 29.6332 9.02816 29.6332H27.2858C28.8992 29.6332 30.207 28.3497 30.207 26.7664V8.84887C30.207 7.26557 28.8992 5.98206 27.2858 5.98206Z" stroke="#FFDCC6" stroke-width="3"/>
<path d="M12.6797 16.0159V23.8996" stroke="#FFDCC6" stroke-width="3" stroke-linecap="round" stroke-linejoin="round"/>
<path d="M12.6797 13.5074C13.4864 13.5074 14.1403 12.8657 14.1403 12.074C14.1403 11.2824 13.4864 10.6406 12.6797 10.6406C11.873 10.6406 11.2191 11.2824 11.2191 12.074C11.2191 12.8657 11.873 13.5074 12.6797 13.5074Z" fill="#FFDCC6"/>
<path d="M23.6343 23.8996V19.241C23.6343 17.4598 22.1629 16.0159 20.3479 16.0159C18.5329 16.0159 17.0615 17.4598 17.0615 19.241V23.8996" stroke="#FFDCC6" stroke-width="3" stroke-linecap="round"/>
</svg>
